<svg style="display:none"><defs><svg id="op3-icons-button-circle-play-2" xmlns="http://www.w3.org/2000/svg" viewBox="0 0 32 32"><path fill="currentColor" d="M16 0C7.178 0 0 7.178 0 16s7.178 16 16 16 16-7.178 16-16S24.822 0 16 0zm-3.967 8c.176.006.35.059.504.156l11 7a1.001 1.001 0 010 1.688l-11 7a1.01 1.01 0 01-1.017.033A1.002 1.002 0 0111 23V9a1.002 1.002 0 011.033-1z"/></svg><svg id="op3-icons-logo-facebook" xmlns="http://www.w3.org/2000/svg" viewBox="0 0 32 32"><path fill="currentColor" d="M1.3 0C.6 0 0 .6 0 1.3v29.3c0 .8.6 1.4 1.3 1.4H17V20h-4v-5h4v-4c0-4.1 2.6-6.199 6.3-6.199 1.8 0 3.3.2 3.7.2v4.3h-2.6c-2 0-2.5.998-2.5 2.398V15h5l-1 5h-4l.1 12h8.6c.7 0 1.3-.6 1.3-1.3V1.3C32 .6 31.399 0 30.699 0H1.301z"/></svg><svg id="op3-icons-logo-twitter" xmlns="http://www.w3.org/2000/svg" viewBox="0 0 32 32"><path fill="currentColor" d="M22.199 3c-3.6 0-6.6 2.9-6.6 6.6 0 .5.102 1 .202 1.5-5.5-.3-10.302-2.9-13.602-6.9-.6 1-.899 2.1-.899 3.3 0 2.3 1.2 4.3 2.9 5.5-1.1 0-2.1-.3-3-.8v.1c0 3.2 2.3 5.8 5.3 6.4-.6.1-1.099.2-1.699.2-.4 0-.801 0-1.201-.1.8 2.6 3.3 4.5 6.1 4.6-2.2 1.8-5.1 2.8-8.2 2.8-.5 0-1.1 0-1.6-.1 3 1.8 6.5 2.9 10.2 2.9 12.1 0 18.7-10 18.7-18.7v-.8c1.2-1 2.3-2.1 3.2-3.4-1.2.5-2.4.9-3.8 1 1.4-.8 2.4-2.1 2.9-3.6-1.3.8-2.7 1.3-4.2 1.6C25.7 3.8 24 3 22.2 3z"/></svg><svg id="op3-icons-logo-youtube" xmlns="http://www.w3.org/2000/svg" viewBox="0 0 32 32"><path fill="currentColor" d="M16 4.7s-6.7 0-11.199.3c-.6.1-2.001.1-3.201 1.4C.6 7.4.3 9.6.3 9.6S0 12.2 0 14.8v2.4c0 2.6.3 5.2.3 5.2s.3 2.2 1.3 3.2c1.2 1.3 2.8 1.2 3.5 1.4 2.6.2 10.9.3 10.9.3s6.699 0 11.199-.3c.6-.1 2.001-.1 3.201-1.4 1-1 1.299-3.2 1.299-3.2s.3-2.6.3-5.2v-2.4c0-2.6-.3-5.2-.3-5.2S31.4 7.4 30.4 6.4c-1.2-1.3-2.601-1.3-3.201-1.4-4.5-.3-11.2-.3-11.2-.3zm-3.3 6.5l8.6 4.5-8.6 4.5v-9z"/></svg></defs></svg>