<svg id="op3-icons-goal-65-2" xmlns="http://www.w3.org/2000/svg" viewBox="0 0 32 32"><path fill="currentColor" d="M13 0C5.832 0 0 5.832 0 13c0 6.713 5.236 12.402 11.918 12.955l.164-1.992C6.43 23.496 2 18.68 2 13 2 6.935 6.935 2 13 2c5.681 0 10.497 4.427 10.963 10.08l1.992-.162C25.405 5.235 19.713 0 13 0zm0 5c-4.411 0-8 3.589-8 8 0 3.955 2.948 7.36 6.857 7.92l.284-1.98C9.21 18.52 7 15.965 7 13c0-3.31 2.691-6 6-6 2.967 0 5.521 2.21 5.94 5.143l1.978-.284C20.36 7.95 16.956 5 13 5zm.9 8.006a1.001 1.001 0 00-.89 1.127l2 15a.997.997 0 001.697.574L20 26.414l5.293 5.293a.997.997 0 001.414 0l5-5a.999.999 0 000-1.414L26.414 20l3.293-3.293a1 1 0 00-.574-1.697l-15-2a1.019 1.019 0 00-.233-.004z"/></svg>