<svg id="op3-icons-lungs-2" xmlns="http://www.w3.org/2000/svg" viewBox="0 0 32 32"><path fill="currentColor" d="M14 0v7c0 3.3-2.7 6-6 6-.6 0-1-.4-1-1s.4-1 1-1c2.2 0 4-1.8 4-4V4.6c-.4-.1-.9-.2-1.4-.2-4.1 0-8.8 4-9.9 11.6-.5 3.5-.2 6.8.8 9.5 1.1 2.9 3 4.7 5.3 5.1.3 0 .6.1.8.1 1.5 0 2.9-.6 4.2-1.6 2.4-2.1 4.2-5.7 4.2-10 0 4.3 1.8 7.9 4.2 10 1.2 1.1 2.7 1.6 4.2 1.6.3 0 .6 0 .8-.1 2.3-.3 4.2-2.1 5.3-5.1 1-2.6 1.3-6 .8-9.5-1.1-7.6-5.8-11.6-9.9-11.6-.5 0-1 .1-1.4.2V7c0 2.2 1.8 4 4 4 .6 0 1 .4 1 1s-.4 1-1 1c-3.3 0-6-2.7-6-6V0h-4zm2.012 14.775c2.937 0 5.888.675 8.588 2.025.4.1.6.7.4 1.2-.2.4-.5.6-.9.6-.1 0-.3 0-.4-.1-4.8-2.4-10.5-2.4-15.3 0-.5.2-1.1 0-1.3-.4-.2-.5 0-1.1.4-1.3a18.75 18.75 0 018.512-2.025z"/></svg>