<svg style="display:none"><defs><svg id="op3-icons-chat-round-2" xmlns="http://www.w3.org/2000/svg" viewBox="0 0 32 32"><path fill="currentColor" d="M16 1C7 1 0 6.7 0 14s7.2 13.301 16 13.301c1.4 0 2.8-.2 4.1-.5l7.5 3.1c.1.1.3.1.4.1.2 0 .4-.1.6-.2.3-.2.4-.5.4-.9l-.5-6.702C30.8 19.9 32 17 32 14c0-7.3-7-13-16-13z"/></svg><svg id="op3-icons-email-83-1" xmlns="http://www.w3.org/2000/svg" viewBox="0 0 32 32"><path fill="currentColor" d="M0 4v24h32V4H0zm2 2h28v3.4l-14 7.467L2 9.4V6zm0 5.666l14 7.467 14-7.467V26H2V11.666z"/></svg><svg id="op3-icons-logo-facebook" xmlns="http://www.w3.org/2000/svg" viewBox="0 0 32 32"><path fill="currentColor" d="M1.3 0C.6 0 0 .6 0 1.3v29.3c0 .8.6 1.4 1.3 1.4H17V20h-4v-5h4v-4c0-4.1 2.6-6.199 6.3-6.199 1.8 0 3.3.2 3.7.2v4.3h-2.6c-2 0-2.5.998-2.5 2.398V15h5l-1 5h-4l.1 12h8.6c.7 0 1.3-.6 1.3-1.3V1.3C32 .6 31.399 0 30.699 0H1.301z"/></svg><svg id="op3-icons-logo-twitter" xmlns="http://www.w3.org/2000/svg" viewBox="0 0 32 32"><path fill="currentColor" d="M22.199 3c-3.6 0-6.6 2.9-6.6 6.6 0 .5.102 1 .202 1.5-5.5-.3-10.302-2.9-13.602-6.9-.6 1-.899 2.1-.899 3.3 0 2.3 1.2 4.3 2.9 5.5-1.1 0-2.1-.3-3-.8v.1c0 3.2 2.3 5.8 5.3 6.4-.6.1-1.099.2-1.699.2-.4 0-.801 0-1.201-.1.8 2.6 3.3 4.5 6.1 4.6-2.2 1.8-5.1 2.8-8.2 2.8-.5 0-1.1 0-1.6-.1 3 1.8 6.5 2.9 10.2 2.9 12.1 0 18.7-10 18.7-18.7v-.8c1.2-1 2.3-2.1 3.2-3.4-1.2.5-2.4.9-3.8 1 1.4-.8 2.4-2.1 2.9-3.6-1.3.8-2.7 1.3-4.2 1.6C25.7 3.8 24 3 22.2 3z"/></svg><svg id="op3-icons-logo-youtube" xmlns="http://www.w3.org/2000/svg" viewBox="0 0 32 32"><path fill="currentColor" d="M16 4.7s-6.7 0-11.199.3c-.6.1-2.001.1-3.201 1.4C.6 7.4.3 9.6.3 9.6S0 12.2 0 14.8v2.4c0 2.6.3 5.2.3 5.2s.3 2.2 1.3 3.2c1.2 1.3 2.8 1.2 3.5 1.4 2.6.2 10.9.3 10.9.3s6.699 0 11.199-.3c.6-.1 2.001-.1 3.201-1.4 1-1 1.299-3.2 1.299-3.2s.3-2.6.3-5.2v-2.4c0-2.6-.3-5.2-.3-5.2S31.4 7.4 30.4 6.4c-1.2-1.3-2.601-1.3-3.201-1.4-4.5-.3-11.2-.3-11.2-.3zm-3.3 6.5l8.6 4.5-8.6 4.5v-9z"/></svg><svg id="op3-icons-multiple-19-1" xmlns="http://www.w3.org/2000/svg" viewBox="0 0 32 32"><path fill="currentColor" d="M10.5 3C6.922 3 4 5.922 4 9.5c0 1.79.695 3.594 1.83 5.014C6.965 15.934 8.601 17 10.5 17s3.535-1.067 4.67-2.486S17 11.289 17 9.5C17 5.922 14.078 3 10.5 3zm13 1C20.474 4 18 6.474 18 9.5c0 1.513.577 3.053 1.523 4.29.946 1.236 2.33 2.21 3.977 2.21s3.03-.975 3.977-2.21C28.423 12.552 29 11.012 29 9.5 29 6.474 26.526 4 23.5 4zm-13 1C12.998 5 15 7.002 15 9.5c0 1.249-.537 2.695-1.393 3.766S11.64 15 10.5 15c-1.14 0-2.252-.663-3.107-1.734C6.537 12.195 6 10.749 6 9.5 6 7.002 8.002 5 10.5 5zm13 1C25.444 6 27 7.556 27 9.5c0 .972-.43 2.182-1.113 3.074C25.204 13.467 24.338 14 23.5 14s-1.704-.533-2.387-1.426C20.431 11.682 20 10.472 20 9.5 20 7.556 21.556 6 23.5 6zm0 12c-2.55 0-4.606.573-6 1.129a3.95 3.95 0 00-1.223.787C14.733 19.399 12.805 19 10.5 19c-3.391 0-5.99.86-7.705 1.695A4.992 4.992 0 000 25.185V29h21v-3.815c0-1.775-.947-3.41-2.469-4.3A14.158 14.158 0 0123.5 20c2.25 0 4.054.506 5.26.986A1.98 1.98 0 0130 22.838V24h-6v2h8v-3.162a3.993 3.993 0 00-2.5-3.71 16.24 16.24 0 00-6-1.128zm-13 3c3.055 0 5.34.768 6.828 1.492h.002A2.983 2.983 0 0119 25.186V27H2v-1.814c0-1.15.643-2.194 1.67-2.694h.002C5.159 21.768 7.445 21 10.5 21z"/></svg><svg id="op3-icons-newsletter-1" xmlns="http://www.w3.org/2000/svg" viewBox="0 0 32 32"><path fill="currentColor" d="M5 0v10.424l-5 2.9V32h32V13.324l-5-2.9V0H5zm2 2h18v13.998l-9.404 5.068L7 16.168V2zm3 4v2h12V6H10zm0 5v2h12v-2H10zm-5 1.736v2.293l-1.992-1.136L5 12.736zm22 0l1.951 1.131L27 14.92v-2.184zm3 2.84v13.701l-12.357-7.043L30 15.576zm-28 .047L27.225 30H2V15.623z"/></svg><svg id="op3-icons-phone-call-1" xmlns="http://www.w3.org/2000/svg" viewBox="0 0 32 32"><path fill="currentColor" d="M18 0v2h1c6.087 0 11 4.913 11 11v1h2v-1c0-7.168-5.832-13-13-13h-1zM6 .586l-6 6V7c0 13.795 11.205 25 25 25h.414l6-6L23 17.586l-5 5L9.414 14l5-5L6 .586zm0 2.828L11.586 9l-5 5L18 25.414l5-5L28.586 26l-3.963 3.963C12.216 29.759 2.24 19.783 2.037 7.377L6 3.414zM18 6v2h1c2.774 0 5 2.226 5 5v1h2v-1c0-3.854-3.146-7-7-7h-1z"/></svg><svg id="op3-icons-single-01-1" xmlns="http://www.w3.org/2000/svg" viewBox="0 0 32 32"><path fill="currentColor" d="M16 0c-4.406 0-8 3.594-8 8v2c0 4.406 3.594 8 8 8s8-3.594 8-8V8c0-4.406-3.594-8-8-8zm0 2c3.326 0 6 2.674 6 6v2c0 3.326-2.674 6-6 6s-6-2.674-6-6V8c0-3.326 2.674-6 6-6zm0 18c-5.332 0-9.288 1.011-11.711 1.887a4.998 4.998 0 00-3.29 4.7V32h30v-5.412a4.998 4.998 0 00-3.288-4.701C25.288 21.01 21.332 20 16 20zm0 2c5.08 0 8.8.961 11.031 1.768A2.98 2.98 0 0129 26.588V30H3v-3.412c0-1.27.78-2.39 1.969-2.82C7.2 22.96 10.92 22 15.999 22z"/></svg><svg id="op3-icons-small-add-1" xmlns="http://www.w3.org/2000/svg" viewBox="0 0 32 32"><path fill="currentColor" d="M15 8v7H8v2h7v7h2v-7h7v-2h-7V8h-2z"/></svg><svg id="op3-icons-small-delete-1" xmlns="http://www.w3.org/2000/svg" viewBox="0 0 32 32"><path fill="currentColor" d="M8 15v2h16v-2H8z"/></svg><svg id="op3-icons-small-right" xmlns="http://www.w3.org/2000/svg" viewBox="0 0 32 32"><path fill="currentColor" d="M13 8.586L11.586 10l6 6-6 6L13 23.414 20.414 16 13 8.586z"/></svg></defs></svg>